<?xml version="1.0" standalone="no"?>
<!DOCTYPE svg PUBLIC "-//W3C//DTD SVG 20010904//EN"
 "http://www.w3.org/TR/2001/REC-SVG-20010904/DTD/svg10.dtd">
<svg version="1.0" xmlns="http://www.w3.org/2000/svg"
 width="914.000000pt" height="914.000000pt" viewBox="0 0 914.000000 914.000000"
 preserveAspectRatio="xMidYMid meet">

<g transform="translate(0.000000,914.000000) scale(0.100000,-0.100000)"
fill="#000000" stroke="none">
<path d="M2765 7125 c-341 -55 -615 -199 -853 -449 -215 -227 -362 -513 -419
-818 -26 -136 -25 -495 1 -633 49 -267 174 -533 354 -760 121 -153 238 -272
1386 -1424 1284 -1287 1235 -1241 1341 -1241 100 1 98 -2 729 633 324 326 871
876 1216 1222 344 347 664 675 709 730 160 193 297 427 361 615 55 162 72 266
77 475 9 341 -35 561 -162 816 -217 432 -587 718 -1062 819 -71 16 -151 23
-288 27 -167 5 -206 3 -320 -17 -279 -47 -520 -158 -760 -348 -156 -124 -369
-349 -464 -491 l-43 -63 -24 42 c-73 128 -301 375 -466 503 -238 185 -457 291
-721 349 -124 27 -460 34 -592 13z m489 -371 c398 -66 754 -332 1068 -798 111
-164 152 -196 251 -196 82 0 132 30 194 120 284 406 491 612 752 749 364 190
791 198 1146 21 236 -117 406 -289 514 -521 85 -181 119 -328 128 -545 7 -183
-10 -302 -67 -475 -57 -171 -124 -295 -243 -449 -28 -36 -584 -600 -1236
-1255 l-1186 -1190 -1201 1205 c-667 670 -1223 1235 -1251 1273 -127 174 -213
358 -260 559 -24 100 -27 132 -26 288 0 188 16 290 68 446 54 161 155 322 285
455 265 269 646 381 1064 313z"/>
</g>
</svg>
